<svg viewBox="0 0 143.974 27" height="27" width="143.974" xmlns="http://www.w3.org/2000/svg">
  <g transform="translate(0 0.316)" id="logo-learnx">
    <path fill="#cff2e8" transform="translate(-2592.292 -469.493)" d="M2608.345,495.861h-16.053V469.493h4.914V491.36h11.14Z" data-name="Path 442" id="Path_442"></path>
    <path fill="#cff2e8" transform="translate(-2680.96 -469.493)" d="M2717.943,495.861h-16.766V469.493h16.579v4.5H2706.09v6.339h10.765v4.276H2706.09v6.752h11.853Z" data-name="Path 443" id="Path_443"></path>
    <path fill="#cff2e8" transform="translate(-2767.325 -469.493)" d="M2817.023,469.493h5.251l9.715,26.368H2826.7l-1.913-5.514h-10.615l-1.913,5.514h-5.026Zm6.3,16.729-3.826-11.028-3.863,11.028Z" data-name="Path 444" id="Path_444"></path>
    <path fill="#cff2e8" transform="translate(-2887.578 -469.493)" d="M2959.82,495.861h-4.913V469.493h10.052a11.188,11.188,0,0,1,7.164,2.213,7.138,7.138,0,0,1,2.776,5.889c0,4.088-2.626,7.014-7.014,8.027l8.327,10.24h-6.076l-7.952-9.94h-2.363Zm0-22.092v8.139h4.876c3,0,5.063-1.613,5.063-4.163,0-2.438-2.026-3.976-5.063-3.976Z" data-name="Path 445" id="Path_445"></path>
    <path fill="#cff2e8" transform="translate(-2996.973 -469.493)" d="M3093.857,495.861h-4.614V469.493h4.651l11.328,18.116V469.493h4.651v26.368h-4.726l-11.29-18.041Z" data-name="Path 446" id="Path_446"></path>
    <path fill="#cff2e8" transform="translate(-3105.891 -468.109)" d="M3226.653,494.793,3223,491.935l8.315-10.642L3223,470.65l3.657-2.857,10.548,13.5Z" data-name="Path 447" id="Path_447"></path>
    <path fill="#cff2e8" transform="translate(-3161.433 -468.108)" d="M3301.75,494.792l-10.548-13.5,10.548-13.5,3.657,2.858-8.315,10.642,8.315,10.643Z" data-name="Path 448" id="Path_448"></path>
    <path fill="#cff2e8" transform="translate(128.365 10.864)" d="M0,0H4.349V4.641H0Z" data-name="Path 726" id="Path_726"></path>
  </g>
</svg>
